<?xml version="1.0" encoding="UTF-8" standalone="no"?>
<svg
   xmlns:dc="http://purl.org/dc/elements/1.1/"
   xmlns:cc="http://creativecommons.org/ns#"
   xmlns:rdf="http://www.w3.org/1999/02/22-rdf-syntax-ns#"
   xmlns:svg="http://www.w3.org/2000/svg"
   xmlns="http://www.w3.org/2000/svg"
   viewBox="0 0 258 258"
   height="258"
   width="258"
   version="1.1"
   id="svg3543">
  <metadata
     id="metadata3549">
    <rdf:RDF>
      <cc:Work
         rdf:about="">
        <dc:format>image/svg+xml</dc:format>
        <dc:type
           rdf:resource="http://purl.org/dc/dcmitype/StillImage" />
        <dc:title></dc:title>
      </cc:Work>
    </rdf:RDF>
  </metadata>
  <defs
     id="defs3547" />
  <text
     id="text4464"
     y="102.17822"
     x="93.379539"
     style="font-style:normal;font-weight:normal;font-size:10px;line-height:125%;font-family:sans-serif;letter-spacing:0px;word-spacing:0px;fill:#000000;fill-opacity:1;stroke:none;stroke-width:1px;stroke-linecap:butt;stroke-linejoin:miter;stroke-opacity:1"
     xml:space="preserve"><tspan
       y="102.17822"
       x="93.379539"
       id="tspan4466" /></text>
  <path
     d="M 101.0429,170.29703 38.272826,148.72962 -15.07921,188.21122 -13.964404,121.84863 -68.000321,83.308313 -4.5412554,63.861389 15.414748,0.56056511 53.519801,54.904293 119.88921,54.32255 79.980359,107.35574 Z"
     id="path4468"
     style="fill:#000000;fill-opacity:0" />
  <path
     d="m 79.755779,151.28054 -15.468671,-7.91946 -15.293288,8.25306 2.751771,-17.15883 -12.575013,-11.99444 17.169359,-2.68528 7.521502,-15.66604 7.859477,15.49924 17.223557,2.3123 -12.311935,12.26433 z"
     id="path4470"
     style="fill:#000000;fill-opacity:0" />
  <path
     d="M 107.0033,104.73267 46.261697,99.781857 32.200016,40.483276 84.25102,8.7855523 130.48199,48.493864 Z"
     id="path4472"
     style="fill:#000000;fill-opacity:0" />
  <path
     d="M 177.9604,196.9769 -43.54786,214.62253 -128.77967,9.4084608 40.052436,-135.06644 229.62822,-19.142769 Z"
     id="path4474"
     style="fill:#000000;fill-opacity:0" />
  <text
     id="text4476"
     y="98.20462"
     x="53.927395"
     style="font-style:normal;font-weight:normal;font-size:10px;line-height:125%;font-family:sans-serif;letter-spacing:0px;word-spacing:0px;fill:#000000;fill-opacity:1;stroke:none;stroke-width:1px;stroke-linecap:butt;stroke-linejoin:miter;stroke-opacity:1"
     xml:space="preserve"><tspan
       style="font-size:50px;fill:#0050dc"
       y="98.20462"
       x="53.927395"
       id="tspan4478">GitHub</tspan></text>
</svg>
